HIERARCHY
ROOT hip
{
	OFFSET 0.000000 0.000000 0.000000
	CHANNELS 6 Xposition Yposition Zposition Xrotation Zrotation Yrotation 
	JOINT abdomen
	{
		OFFSET 0.000000 3.422050 0.000000
		CHANNELS 3 Xrotation Zrotation Yrotation 
		JOINT chest
		{
			OFFSET 0.000000 8.486693 -0.684411
			CHANNELS 3 Xrotation Zrotation Yrotation 
			JOINT neck
			{
				OFFSET 0.000000 10.266162 -0.273764
				CHANNELS 3 Xrotation Zrotation Yrotation 
				JOINT head
				{
					OFFSET 0.000000 3.148285 0.000000
					CHANNELS 3 Xrotation Zrotation Yrotation 
					End Site
					{
						OFFSET 0.000000 3.148289 0.000000
					}
				}
			}
			JOINT lCollar
			{
				OFFSET 3.422053 6.707223 -0.821293
				CHANNELS 3 Yrotation Zrotation Xrotation 
				JOINT lShldr
				{
					OFFSET 3.285171 0.000000 0.000000
					CHANNELS 3 Zrotation Yrotation Xrotation 
					JOINT lForeArm
					{
						OFFSET 10.129278 0.000000 0.000000
						CHANNELS 3 Yrotation Zrotation Xrotation 
						JOINT lHand
						{
							OFFSET 8.486692 0.000000 0.000000
							CHANNELS 3 Zrotation Yrotation Xrotation 
							End Site
							{
								OFFSET 4.106464 0.000000 0.000000
							}
						}
					}
				}
			}
			JOINT rCollar
			{
				OFFSET -3.558935 6.707223 -0.821293
				CHANNELS 3 Yrotation Zrotation Xrotation 
				JOINT rShldr
				{
					OFFSET -3.148289 0.000000 0.000000
					CHANNELS 3 Zrotation Yrotation Xrotation 
					JOINT rForeArm
					{
						OFFSET -10.266159 0.000000 0.000000
						CHANNELS 3 Yrotation Zrotation Xrotation 
						JOINT rHand
						{
							OFFSET -8.349810 0.000000 0.000000
							CHANNELS 3 Zrotation Yrotation Xrotation 
							End Site
							{
								OFFSET -4.106464 0.000000 0.000000
							}
						}
					}
				}
			}
		}
	}
	JOINT lThigh
	{
		OFFSET 5.338403 -1.642589 1.368821
		CHANNELS 3 Xrotation Zrotation Yrotation 
		JOINT lShin
		{
			OFFSET -2.053232 -20.121670 0.000000
			CHANNELS 3 Xrotation Zrotation Yrotation 
			JOINT lFoot
			{
				OFFSET 0.000000 -19.300380 -1.231939
				CHANNELS 3 Xrotation Yrotation Zrotation 
				End Site
				{
					OFFSET 0.000000 -2.463878 4.653993
				}
			}
		}
	}
	JOINT rThigh
	{
		OFFSET -5.338403 -1.642589 1.368821
		CHANNELS 3 Xrotation Zrotation Yrotation 
		JOINT rShin
		{
			OFFSET 2.053232 -20.121670 0.000000
			CHANNELS 3 Xrotation Zrotation Yrotation 
			JOINT rFoot
			{
				OFFSET 0.000000 -19.300380 -1.231939
				CHANNELS 3 Xrotation Yrotation Zrotation 
				End Site
				{
					OFFSET 0.000000 -2.463878 4.653993
				}
			}
		}
	}
}
MOTION
Frames: 15
Frame Time: 0.033306
0.000000 43.528500 0.000000 0.000000 0.000000 0.000000 0.000000 0.000000 0.000000 0.000000 0.000000 0.000000 0.000000 0.000000 0.000000 0.000000 0.000000 0.000000 0.000000 0.000000 0.000000 0.000000 0.000000 0.000000 0.000000 0.000000 0.000000 0.000000 0.000000 0.000000 0.000000 0.000000 0.000000 0.000000 0.000000 0.000000 0.000000 0.000000 0.000000 0.000000 0.000000 0.000000 0.000000 0.000000 0.000000 0.000000 0.000000 0.000000 0.000000 0.000000 0.000000 0.000000 0.000000 0.000000 0.000000 0.000000 0.000000 0.000000 0.000000 0.000000 
0.000000 1.995800 -32.004837 -63.002171 0.000000 0.000000 -6.002029 0.000000 0.000000 19.998167 0.000000 0.000000 30.999151 0.000000 0.000000 0.274519 0.000415 -0.173104 0.000000 0.000000 0.000000 -76.018272 40.998165 -0.007638 -81.003273 0.000000 0.000000 -13.000401 0.000000 0.000000 10.999558 0.000000 0.000000 83.997696 22.000610 29.998957 17.997494 4.998260 0.999532 42.996262 -0.000313 16.996502 -57.004147 41.998764 31.995502 71.996742 0.000001 -0.000001 14.998732 -0.002847 -0.999614 -57.001446 -50.004776 -35.000286 71.996742 0.000001 -0.000001 20.996786 0.000000 0.000000 
0.000000 1.995800 -32.004837 -63.002171 0.000000 0.000000 -6.002029 0.000000 0.000000 19.998163 0.000000 0.000000 30.999149 0.000000 0.000000 -0.779380 -0.001155 -0.169849 0.000000 0.000000 0.000000 -76.018272 40.998161 -0.007640 -81.003273 0.000000 0.000000 -13.000401 0.000000 0.000000 10.999558 0.000000 0.000000 83.997696 22.000610 29.998957 18.497217 4.998342 0.999399 42.783218 -0.075084 17.137627 -57.004147 41.998764 31.995502 71.996712 0.000116 0.570911 14.998732 -0.002847 -0.999614 -57.001442 -50.004772 -35.000282 71.996719 -0.000169 -0.571263 20.996786 0.000000 0.000000 
0.000000 1.995800 -32.004837 -63.002171 0.000000 0.000000 -6.002029 0.000000 0.000000 19.998167 0.000000 0.000000 30.999151 0.000000 0.000000 -1.837608 -0.002671 -0.166552 0.000000 0.000000 0.000000 -76.018257 40.998161 -0.007637 -81.003273 0.000000 0.000000 -13.000401 0.000000 0.000000 10.999557 0.000000 0.000000 83.997696 22.000612 29.998957 18.997051 4.998420 0.999264 42.569977 -0.149334 17.279032 -57.004147 41.998764 31.995502 71.996681 0.000231 1.141993 14.998732 -0.002847 -0.999614 -57.001446 -50.004772 -35.000282 71.996727 -0.000340 -1.142694 20.996786 0.000000 0.000000 
0.000000 1.995800 -32.004837 -63.002163 0.000000 0.000000 -6.002028 0.000000 0.000000 19.998163 0.000000 0.000000 30.999149 0.000000 0.000000 -2.900012 -0.004131 -0.163214 0.000000 0.000000 0.000000 -76.018272 40.998161 -0.007637 -81.003273 0.000000 0.000000 -13.000401 0.000000 0.000000 10.999557 0.000000 0.000000 83.997696 22.000610 29.998957 19.496984 4.998500 0.999128 42.356548 -0.223061 17.420727 -57.004147 41.998764 31.995502 71.996643 0.000346 1.713217 14.998729 -0.002847 -0.999614 -57.001446 -50.004768 -35.000278 71.996712 -0.000510 -1.714268 20.996786 0.000000 0.000000 
0.000000 1.995800 -32.004837 -63.002171 0.000000 0.000000 -6.002029 0.000000 0.000000 19.998169 0.000000 0.000000 30.999151 0.000000 0.000000 -3.966433 -0.005535 -0.159837 0.000000 0.000000 0.000000 -76.018272 40.998165 -0.007638 -81.003273 0.000000 0.000000 -13.000401 0.000000 0.000000 10.999559 0.000000 0.000000 83.997696 22.000610 29.998957 19.996996 4.998579 0.998993 42.142910 -0.296263 17.562695 -57.004147 41.998764 31.995502 71.996620 0.000462 2.284555 14.998732 -0.002847 -0.999614 -57.001450 -50.004780 -35.000298 71.996696 -0.000681 -2.285956 20.996788 0.000000 0.000000 
0.000000 1.995800 -32.004837 -63.002171 0.000000 0.000000 -6.002029 0.000000 0.000000 19.998167 0.000000 0.000000 30.999151 0.000000 0.000000 -5.036707 -0.006880 -0.156423 0.000000 0.000000 0.000000 -76.018272 40.998165 -0.007638 -81.003273 0.000000 0.000000 -13.000401 0.000000 0.000000 10.999559 0.000000 0.000000 83.997696 22.000610 29.998957 20.497063 4.998656 0.998856 41.929104 -0.368937 17.704948 -57.004147 41.998764 31.995502 71.996597 0.000578 2.855978 14.998732 -0.002847 -0.999614 -57.001446 -50.004780 -35.000294 71.996689 -0.000852 -2.857730 20.996788 0.000000 0.000000 
0.000000 1.995800 -32.004837 -63.002171 0.000000 0.000000 -6.002029 0.000000 0.000000 19.998167 0.000000 0.000000 30.999151 0.000000 0.000000 -6.110669 -0.008165 -0.152972 0.000000 0.000000 0.000000 -76.018272 40.998169 -0.007640 -81.003281 0.000000 0.000000 -13.000401 0.000000 0.000000 10.999558 0.000000 0.000000 83.997696 22.000610 29.998957 20.997162 4.998730 0.998718 41.715096 -0.441081 17.847469 -57.004147 41.998764 31.995502 71.996567 0.000695 3.427459 14.998732 -0.002847 -0.999614 -57.001446 -50.004776 -35.000286 71.996674 -0.001023 -3.429560 20.996786 0.000000 0.000000 
0.000000 1.995800 -32.004837 -63.002171 0.000000 0.000000 -6.002029 0.000000 0.000000 19.998167 0.000000 0.000000 30.999151 0.000000 0.000000 -7.188142 -0.009389 -0.149486 0.000000 0.000000 0.000000 -76.018272 40.998165 -0.007638 -81.003273 0.000000 0.000000 -13.000401 0.000000 0.000000 10.999558 0.000000 0.000000 83.997696 22.000610 29.998957 21.497286 4.998805 0.998580 41.500916 -0.512693 17.990271 -57.004147 41.998764 31.995502 71.996536 0.000811 3.998967 14.998732 -0.002847 -0.999614 -57.001446 -50.004776 -35.000286 71.996674 -0.001194 -4.001419 20.996786 0.000000 0.000000 
0.000000 1.995800 -32.004837 -63.002171 0.000000 0.000000 -6.002029 0.000000 0.000000 19.998167 0.000000 0.000000 30.999149 0.000000 0.000000 -8.268963 -0.010551 -0.145966 0.000000 0.000000 0.000000 -76.018272 40.998165 -0.007638 -81.003273 0.000000 0.000000 -13.000401 0.000000 0.000000 10.999558 0.000000 0.000000 83.997696 22.000612 29.998957 21.997406 4.998878 0.998442 41.286552 -0.583770 18.133333 -57.004147 41.998764 31.995502 71.996506 0.000928 4.570476 14.998732 -0.002847 -0.999614 -57.001442 -50.004772 -35.000282 71.996666 -0.001365 -4.573277 20.996786 0.000000 0.000000 
0.000000 1.995800 -32.004837 -63.002171 0.000000 0.000000 -6.002029 0.000000 0.000000 19.998165 0.000000 0.000000 30.999149 0.000000 0.000000 -9.352948 -0.011650 -0.142415 0.000000 0.000000 0.000000 -76.018272 40.998165 -0.007638 -81.003273 0.000000 0.000000 -13.000402 0.000000 0.000000 10.999557 0.000000 0.000000 83.997696 22.000610 29.998957 22.497509 4.998950 0.998302 41.072006 -0.654311 18.276663 -57.004147 41.998760 31.995499 71.996483 0.001046 5.141955 14.998730 -0.002847 -0.999614 -57.001446 -50.004772 -35.000282 71.996674 -0.001536 -5.145108 20.996786 0.000000 0.000000 
0.000000 1.995800 -32.004837 -63.002171 0.000000 0.000000 -6.002029 0.000000 0.000000 19.998167 0.000000 0.000000 30.999146 0.000000 0.000000 -10.439915 -0.012684 -0.138834 0.000000 0.000000 0.000000 -76.018257 40.998161 -0.007637 -81.003273 0.000000 0.000000 -13.000401 0.000000 0.000000 10.999557 0.000000 0.000000 83.997696 22.000610 29.998957 22.997580 4.999021 0.998162 40.857281 -0.724313 18.420252 -57.004147 41.998760 31.995499 71.996475 0.001163 5.713378 14.998732 -0.002847 -0.999614 -57.001434 -50.004765 -35.000278 71.996681 -0.001707 -5.716882 20.996784 0.000000 0.000000 
0.000000 1.995800 -32.004837 -63.002171 0.000000 0.000000 -6.002029 0.000000 0.000000 19.998167 0.000000 0.000000 30.999151 0.000000 0.000000 -11.529679 -0.013652 -0.135225 0.000000 0.000000 0.000000 -76.018288 40.998165 -0.007640 -81.003273 0.000000 0.000000 -13.000401 0.000000 0.000000 10.999559 0.000000 0.000000 83.997696 22.000610 29.998957 23.497583 4.999090 0.998021 40.642403 -0.793773 18.564106 -57.004147 41.998764 31.995502 71.996437 0.001281 6.284717 14.998732 -0.002847 -0.999614 -57.001450 -50.004776 -35.000290 71.996666 -0.001878 -6.288568 20.996788 0.000000 0.000000 
0.000000 1.995800 -32.004837 -63.002171 0.000000 0.000000 -6.002029 0.000000 0.000000 19.998167 0.000000 0.000000 30.999151 0.000000 0.000000 -12.622060 -0.014553 -0.131589 0.000000 0.000000 0.000000 -76.018272 40.998169 -0.007634 -81.003273 0.000000 0.000000 -13.000401 0.000000 0.000000 10.999559 0.000000 0.000000 83.997696 22.000610 29.998957 23.997519 4.999158 0.997880 40.427341 -0.862690 18.708212 -57.004147 41.998764 31.995502 71.996422 0.001399 6.855941 14.998732 -0.002847 -0.999614 -57.001446 -50.004780 -35.000294 71.996681 -0.002049 -6.860143 20.996786 0.000000 0.000000 
0.000000 1.995800 -32.004837 -63.002171 0.000000 0.000000 -6.002029 0.000000 0.000000 19.998167 0.000000 0.000000 30.999151 0.000000 0.000000 -13.716862 -0.015387 -0.127929 0.000000 0.000000 0.000000 -76.018272 40.998165 -0.007638 -81.003273 0.000000 0.000000 -13.000401 0.000000 0.000000 10.999558 0.000000 0.000000 83.997696 22.000610 29.998957 24.497360 4.999226 0.997739 40.212128 -0.931063 18.852571 -57.004147 41.998764 31.995502 71.996399 0.001517 7.427023 14.998732 -0.002847 -0.999614 -57.001446 -50.004776 -35.000286 71.996681 -0.002220 -7.431575 20.996786 0.000000 0.000000 
